<?xml version="1.0" standalone="no"?>
<!DOCTYPE svg PUBLIC "-//W3C//DTD SVG 20010904//EN"
 "http://www.w3.org/TR/2001/REC-SVG-20010904/DTD/svg10.dtd">
<svg version="1.0" xmlns="http://www.w3.org/2000/svg"
 width="260.000000pt" height="260.000000pt" viewBox="0 0 260.000000 260.000000"
 preserveAspectRatio="xMidYMid meet">
<g transform="translate(0.000000,260.000000) scale(0.100000,-0.100000)"
fill="#000000" stroke="none">
<path d="M1095 2584 c-470 -82 -851 -391 -1008 -819 -57 -156 -79 -278 -79
-455 0 -355 81 -554 287 -709 38 -29 101 -69 140 -88 77 -39 85 -46 85 -83 0
-39 28 -139 54 -195 61 -130 165 -186 401 -215 68 -9 559 -6 600 3 11 3 47 8
80 12 283 32 414 147 428 378 2 32 8 62 13 67 5 5 34 21 64 36 221 109 373
290 416 495 2 13 9 44 14 69 5 25 8 133 6 240 -3 178 -5 203 -30 285 -73 243
-215 482 -391 661 -160 162 -342 260 -570 306 -128 26 -393 32 -510 12z m305
-178 c217 -30 416 -198 490 -413 55 -158 40 -338 -41 -493 -190 -364 -687
-443 -981 -155 -156 152 -225 386 -173 590 82 321 373 516 705 471z m-988
-413 c23 -26 29 -55 29 -132 0 -173 -62 -428 -148 -609 -33 -71 -107 -162
-131 -162 -25 0 -51 40 -62 97 -12 55 -9 251 4 313 3 14 11 49 17 78 21 101
102 303 129 322 4 3 12 15 19 28 15 28 88 82 111 82 9 0 24 -8 32 -17z m1926
-70 c111 -142 192 -385 198 -598 4 -131 -10 -204 -47 -243 -28 -31 -47 -27
-90 18 -124 130 -242 626 -194 814 16 64 37 80 75 61 15 -8 41 -31 58 -52z
m-713 -1061 c156 -46 318 -137 361 -202 23 -34 28 -53 29 -115 4 -147 -25
-266 -77 -315 -33 -32 -116 -68 -195 -85 -185 -39 -679 -39 -872 1 -160 33
-232 86 -272 198 -38 110 -52 279 -26 319 52 80 320 195 497 213 36 3 67 8 69
10 2 2 97 2 210 0 172 -3 218 -7 276 -24z"/>
<path d="M1003 778 c-30 -14 -46 -90 -47 -218 0 -188 27 -261 84 -230 40 22
51 74 51 240 -1 161 -32 234 -88 208z"/>
<path d="M1559 776 c-34 -16 -47 -77 -47 -222 -1 -139 11 -199 43 -220 62 -40
95 48 90 244 -2 106 -6 137 -27 179 -14 29 -30 34 -59 19z"/>
</g>
</svg>
